<svg version="1.1" xmlns="http://www.w3.org/2000/svg" xmlns:xlink="http://www.w3.org/1999/xlink" x="0px" y="0px"
  viewBox="0 0 112 37" enable-background="new 0 0 112 37" xml:space="preserve">
  <g>
    <path fill="#780A09" d="M56,12.3c0,0-1.2-5.3-7.4-5.3s-8.9,6.9-7.2,11.7s4.8,7.1,8.3,9.7s5.9,4.5,6.1,5.6c0.4-1,6.1-5.2,8.4-7.4
      s6.3-6.2,6.8-9.9s-1.1-9.6-7.7-9.6S56,12.3,56,12.3z"/>
    <path fill="#780A09" d="M19,12.3c0,0-1.2-5.3-7.4-5.3s-8.9,6.9-7.1,11.6s4.8,7.1,8.3,9.7s5.9,4.5,6.1,5.6c0.4-1,6.1-5.2,8.4-7.4
      s6.3-6.2,6.8-9.9S33,7,26.4,7S19,12.3,19,12.3z"/>
    <path fill="#780A09" d="M93,12.3c0,0-1.2-5.3-7.4-5.3s-8.9,6.9-7.2,11.7s4.8,7.1,8.3,9.7s5.9,4.5,6.1,5.6c0.4-1,6.1-5.2,8.4-7.4
      s6.3-6.2,6.8-9.9s-1.1-9.6-7.7-9.6S93,12.3,93,12.3z"/>
  </g>
  <g>
    <path fill="#C30C10" d="M56,8.3c0,0-1.2-5.3-7.4-5.3s-8.9,6.9-7.2,11.7s4.8,7.1,8.3,9.7s5.9,4.5,6.1,5.6c0.4-1,6.1-5.2,8.4-7.4
      s6.3-6.2,6.8-9.9s-1.1-9.6-7.7-9.6S56,8.3,56,8.3z"/>
    <path fill="#C30C10" d="M19,8.3c0,0-1.2-5.3-7.4-5.3S2.7,9.9,4.5,14.6s4.8,7.1,8.3,9.7s5.9,4.5,6.1,5.6c0.4-1,6.1-5.2,8.4-7.4
      s6.3-6.2,6.8-9.9S33,3,26.4,3S19,8.3,19,8.3z"/>
    <path fill="#C30C10" d="M93,8.3c0,0-1.2-5.3-7.4-5.3s-8.9,6.9-7.2,11.7s4.8,7.1,8.3,9.7s5.9,4.5,6.1,5.6c0.4-1,6.1-5.2,8.4-7.4
      s6.3-6.2,6.8-9.9s-1.1-9.6-7.7-9.6S93,8.3,93,8.3z"/>
  </g>
</svg>
